#!OML:ASF H:\MichaelJackson\Top Level 1\Subject 1\Session 1\male.ASF
:FULLY-SPECIFIED
:DEGREES
840
root 9.8206 17.6449 31.7318 -172.413 -187.786 -180.089
lowerback 5.40818 1.33032 -0.423832
upperback -1.43364 1.73383 -0.26617
thorax -4.51996 0.867695 -0.197543
lowerneck -13.4135 -3.91441 0.20449
upperneck 9.24898 -5.34862 0.429867
head 4.97017 -2.58164 -0.331064
rclavicle 2.23012e-014 -2.03257e-014
rhumerus -60.6654 15.6495 -85.8591
rradius 61.3285
rwrist -24.026
rhand -1.74979 -19.9482
rfingers 7.12502
rthumb 23.9134 -408.479
lclavicle 2.23012e-014 -2.03257e-014
lhumerus -69.9134 -35.7502 97.3273
lradius 88.5858
lwrist 24.8518
lhand 31.2503 33.8391
lfingers 7.12502
lthumb 54.8274 52.1019
rfemur -34.4728 4.72578 12.3073
rtibia 60.9231
rfoot 10.3811 8.394
rtoes 21.4305
lfemur -34.6289 -5.61857 -9.97734
ltibia 53.5011
lfoot 3.48143 -24.3166
ltoes 5.97148
841
root 9.80674 17.7464 31.746 -173.435 -187.937 -180.274
lowerback 5.6464 1.36164 -0.256854
upperback -1.07688 1.79024 -0.182227
thorax -4.28154 0.892218 -0.209906
lowerneck -13.4156 -3.8983 0.251602
upperneck 9.33156 -5.33747 0.433676
head 4.99514 -2.57346 -0.337673
rclavicle -7.237e-015 -1.51573e-015
rhumerus -63.178 17.54 -85.6057
rradius 62.6518
rwrist -25.5169
rhand 3.32382 -19.8692
rfingers 7.12502
rthumb 28.7699 -407.672
lclavicle -7.237e-015 -1.51573e-015
lhumerus -72.7024 -37.1631 96.2945
lradius 92.9742
lwrist 27.4447
lhand 37.5524 36.4034
lfingers 7.12502
lthumb 60.3371 49.8248
rfemur -33.8431 6.7363 11.6877
rtibia 62.6361
rfoot 15.1046 6.94409
rtoes 24.6823
lfemur -34.3167 -7.48658 -8.8979
ltibia 55.5756
lfoot 8.81869 -25.1451
ltoes 6.85918
842
root 9.79154 17.831 31.7644 -174.498 -188.082 -180.463
lowerback 5.89243 1.41098 -0.146453
upperback -0.683674 1.86699 -0.0884191
thorax -4.01199 0.928924 -0.182044
lowerneck -13.3139 -3.90029 0.298836
upperneck 9.23868 -5.35632 0.508431
head 4.95048 -2.57717 -0.320069
rclavicle -4.54409e-015 1.14301e-015
rhumerus -65.7092 19.2958 -85.2266
rradius 63.9566
rwrist -26.9035
rhand 8.65992 -19.8946
rfingers 7.12502
rthumb 33.8542 -406.711
lclavicle -4.54409e-015 1.14301e-015
lhumerus -75.1472 -38.4489 94.7982
lradius 97.1352
lwrist 30.4317
lhand 43.967 39.352
lfingers 7.12502
lthumb 65.5906 45.514
rfemur -33.1308 8.87605 11.1813
rtibia 64.0389
rfoot 19.9123 5.66444
rtoes 27.4675
lfemur -33.9293 -9.55638 -7.8559
ltibia 57.3284
lfoot 15.0742 -26.1989
ltoes 8.45178
843
root 9.77534 17.901 31.7891 -175.527 -188.182 -180.621
lowerback 6.0632 1.48572 -0.131502
upperback -0.27886 1.97062 0.00588185
thorax -3.6916 0.981394 -0.100491
lowerneck -13.1701 -3.91326 0.306033
upperneck 9.09404 -5.39221 0.674231
head 4.8866 -2.5853 -0.267757
rclavicle -1.36975e-014 1.5207e-014
rhumerus -68.1973 20.9051 -84.6972
rradius 65.1634
rwrist -28.1005
rhand 14.1961 -20.0859
rfingers 7.12502
rthumb 39.0944 -405.579
lclavicle -1.36975e-014 1.5207e-014
lhumerus -77.0765 -39.5741 92.7242
lradius 100.901
lwrist 33.9085
lhand 50.1824 42.8644
lfingers 7.12502
lthumb 70.0706 38.373
rfemur -32.3448 11.1396 10.7511
rtibia 64.9266
rfoot 24.4505 4.9025
rtoes 29.4999
lfemur -33.438 -11.7793 -6.91368
ltibia 58.5138
lfoot 21.8934 -27.1842
ltoes 10.4725
844
root 9.75866 17.9583 31.8208 -176.437 -188.221 -180.715
lowerback 6.07652 1.5832 -0.234193
upperback 0.103602 2.09575 0.0879303
thorax -3.31051 1.0464 0.0367806
lowerneck -13.0265 -3.9272 0.289481
upperneck 9.00366 -5.42996 0.87688
head 4.84153 -2.59239 -0.201295
rclavicle -1.05263e-014 1.76421e-014
rhumerus -70.6011 22.3833 -84.0204
rradius 66.2109
rwrist -29.075
rhand 19.6857 -20.4256
rfingers 7.12502
rthumb 44.2421 -404.218
lclavicle -1.05263e-014 1.76421e-014
lhumerus -78.3768 -40.5338 90.0023
lradius 104.124
lwrist 37.9638
lhand 55.4932 46.848
lfingers 7.12502
lthumb 73.0522 29.0927
rfemur -31.5265 13.4812 10.3553
rtibia 65.1469
rfoot 28.4273 4.92121
rtoes 30.7967
lfemur -32.8424 -14.0934 -6.11807
ltibia 58.9756
lfoot 28.6766 -27.8223
ltoes 13.2107
